<?xml version="1.0" encoding="UTF-8" standalone="no"?>
<!-- Created with Inkscape (http://www.inkscape.org/) -->

<svg
   width="137.66795mm"
   height="88.967766mm"
   viewBox="0 0 137.66795 88.967766"
   version="1.1"
   id="svg1"
   inkscape:version="1.4.1 (93de688d07, 2025-03-30)"
   sodipodi:docname="Switzerland.svg"
   xmlns:inkscape="http://www.inkscape.org/namespaces/inkscape"
   xmlns:sodipodi="http://sodipodi.sourceforge.net/DTD/sodipodi-0.dtd"
   xmlns="http://www.w3.org/2000/svg"
   xmlns:svg="http://www.w3.org/2000/svg">
  <sodipodi:namedview
     id="namedview1"
     pagecolor="#ffffff"
     bordercolor="#000000"
     borderopacity="0.25"
     inkscape:showpageshadow="2"
     inkscape:pageopacity="0.0"
     inkscape:pagecheckerboard="0"
     inkscape:deskcolor="#d1d1d1"
     inkscape:document-units="mm"
     inkscape:zoom="1.9276851"
     inkscape:cx="315.92297"
     inkscape:cy="140.58313"
     inkscape:window-width="1920"
     inkscape:window-height="1131"
     inkscape:window-x="0"
     inkscape:window-y="0"
     inkscape:window-maximized="1"
     inkscape:current-layer="svg1" />
  <defs
     id="defs1" />
  <path
     d="m 136.74041,56.47143 -1.87594,-6.167164 1.80379,-3.807806 0.72152,-8.201841 -2.85,-2.620909 -7.84649,6.84539 -7.77434,-4.094608 -0.16595,-3.429008 -11.81484,-2.086987 0.72152,-8.149531 4.40125,-7.548868 L 97.684708,5.4746285 87.547398,5.4484735 80.927483,0.28421769 75.696487,1.2041516 75.516107,6.8247667 79.664828,6.0130604 79.123691,8.8684628 66.966134,7.8222636 64.134181,9.9868135 53.094975,10.600102 46.763666,9.8966245 l -1.082275,2.9077115 -4.635745,2.932965 -9.974968,-3.284704 -3.535432,4.603276 4.41929,2.62091 -12.103443,14.121886 -6.998713,3.284705 -0.721516,8.279403 -9.5240204,7.157446 -2.32689138,5.555679 1.44303338,6.376404 0.3607583,8.239721 4.5816312,-3.91062 -3.2648632,-2.83015 4.7620104,-6.675833 9.5240197,-2.790466 7.774343,2.960022 -0.180379,2.543346 h -0.01263 l -2.435118,-0.180378 1.623412,12.842997 6.457575,10.691073 9.343641,-0.595251 5.71802,-3.351445 9.109149,3.311761 8.928769,-9.505982 -1.082275,-5.750488 9.902817,-8.8007 1.857905,1.713602 -0.721516,7.289123 5.44745,5.855108 7.305357,2.581225 3.318977,10.483638 3.787962,-2.137493 -2.417081,-4.06755 2.813917,-6.65058 2.886066,-2.451354 6.637957,-13.416603 5.77214,7.940291 3.58954,0.01281 7.01675,-3.715811 4.59967,6.820138 2.72372,-8.800701 -3.37308,-1.424996 1.82183,-7.184502 z"
     id="path1"
     style="display:inline;fill:none;fill-opacity:1;stroke:#4766ac;stroke-width:0.535311;stroke-opacity:1"
     inkscape:label="Switzerland" />
</svg>
