<?xml version="1.0" encoding="UTF-8" standalone="no"?>
<!-- Created with Inkscape (http://www.inkscape.org/) -->

<svg
   width="198.92668mm"
   height="200.23457mm"
   viewBox="0 0 198.92668 200.23457"
   version="1.1"
   id="svg1"
   xml:space="preserve"
   inkscape:version="1.4.1 (93de688d07, 2025-03-30)"
   sodipodi:docname="Vintage-Computer.svg"
   xmlns:inkscape="http://www.inkscape.org/namespaces/inkscape"
   xmlns:sodipodi="http://sodipodi.sourceforge.net/DTD/sodipodi-0.dtd"
   xmlns="http://www.w3.org/2000/svg"
   xmlns:svg="http://www.w3.org/2000/svg"><sodipodi:namedview
     id="namedview1"
     pagecolor="#ffffff"
     bordercolor="#000000"
     borderopacity="0.25"
     inkscape:showpageshadow="2"
     inkscape:pageopacity="0.0"
     inkscape:pagecheckerboard="0"
     inkscape:deskcolor="#d1d1d1"
     inkscape:document-units="mm"
     inkscape:zoom="0.80176768"
     inkscape:cx="371.67874"
     inkscape:cy="325.53071"
     inkscape:window-width="1920"
     inkscape:window-height="1131"
     inkscape:window-x="0"
     inkscape:window-y="0"
     inkscape:window-maximized="1"
     inkscape:current-layer="svg1" /><defs
     id="defs1"><rect
       x="188693.05"
       y="40430.48"
       width="2.6601562"
       height="0.421875"
       id="rect31" /></defs><g
     id="g57"
     transform="matrix(0.09444839,0,0,0.09444839,-135.61926,-63.548728)"
     inkscape:label="Vintage Computer"
     style="display:inline;fill:none;fill-opacity:1;stroke:#dee5f6;stroke-opacity:1"><path
       d="m 1706.6183,943.6799 c 515.787,0 1031.5739,0 1562.9909,0 0,390.8485 0,781.6985 0,1184.3912 -515.7871,0 -1031.5739,0 -1562.9909,0 0,-390.849 0,-781.699 0,-1184.3912 z"
       fill="#2c3134"
       id="path3"
       style="stroke-width:1.0123" /><path
       d="m 1437.3464,673.39601 c 693.5065,0 1387.0129,0 2101.5344,0 1.0576,3.17125 0.9458,4.03848 0,7.08545 0.6681,0.3346 1.3362,0.66919 2.0247,1.0134 -0.3341,0.33326 -0.6681,0.66786 -1.0123,1.01198 -0.098,1.54327 -0.1255,3.09207 -0.1248,4.63944 0,1.5173 0,1.5173 -0.01,3.06609 0,1.69211 0,1.69211 0.01,3.41982 0,1.19231 0,2.38453 0,3.61376 0,3.34597 0,6.6907 0.01,10.03677 0,3.63974 0,7.27939 0,10.92046 0,6.41625 0,12.8325 0.01,19.24733 0.01,9.60529 0.01,19.21049 0.011,28.81578 0,16.36566 0.011,32.73266 0.018,49.09831 0.011,16.59644 0.016,33.19154 0.021,49.78797 0,1.04623 0,2.09237 0,3.17125 0,5.33461 0,10.67056 0,16.00517 0,10.94093 0.01,21.88185 0.01,32.82144 0,1.65386 0,1.65386 0,3.33921 0.011,24.2364 0.017,48.4715 0.028,72.7064 0.023,56.37226 0.037,112.74456 0.049,169.11676 0,22.1099 0.01,44.2186 0.014,66.3285 0,3.7244 0,7.4488 0,11.1745 0.013,57.2873 0.027,114.5746 0.042,171.8619 0,3.8841 0,7.7697 0,11.6538 0.016,59.8467 0.035,119.6948 0.057,179.5415 0,1.9311 0,1.9311 0,3.9005 0.01,14.2829 0.011,28.5658 0.016,42.8487 0,1.9257 0,1.9257 0,3.8883 0,6.4749 0,12.9499 0.01,19.4235 0.022,58.4755 0.044,116.9509 0.053,175.4269 0,1.2278 0,2.4556 0,3.7217 0,25.7482 0.01,51.4965 0.012,77.2448 0,12.0567 0,24.1121 0.011,36.1688 0,1.1869 0,2.375 0,3.5974 0.01,38.2926 0.021,76.5838 0.043,114.875 0.021,38.5508 0.034,77.1 0.034,115.6494 0,5.3196 0,10.6392 0,15.9573 0,1.0435 0,2.0855 0,3.1603 0,16.5555 0.011,33.1124 0.027,49.6679 0.014,16.2523 0.018,32.506 0.01,48.7596 0,9.5452 0,19.0916 0.016,28.6368 0.01,6.3248 0.01,12.6482 0,18.9715 -0.01,3.596 -0.01,7.1906 0.01,10.7853 0.013,3.8486 0,7.6972 -0.01,11.5459 0.01,1.1267 0.015,2.2521 0.023,3.413 -0.01,1.0133 -0.014,2.0281 -0.021,3.0743 0,1.3166 0,1.3166 0,2.6618 -0.1253,0.6938 -0.2502,1.3876 -0.379,2.1032 -1.0022,0.6679 -2.0044,1.3371 -3.037,2.0254 0,-0.6692 0,-1.337 0,-2.0254 -692.1703,0 -1384.3403,0 -2097.4853,0 -0.334,0.6679 -0.6679,1.3371 -1.0122,2.0254 -2.1904,-3.286 -2.2772,-4.1614 -2.2744,-7.9513 -0.01,-1.5324 -0.01,-1.5324 -0.012,-3.0962 0.01,-1.1294 0.011,-2.2575 0.018,-3.4211 0,-1.2005 0,-2.4024 -0.01,-3.6397 0,-3.3597 0,-6.7194 0.013,-10.0792 0.01,-3.6602 0.01,-7.3203 0,-10.9805 0,-6.4477 0,-12.8953 0.015,-19.343 0.016,-9.6339 0.02,-19.2678 0.022,-28.9018 0,-16.4244 0.017,-32.8487 0.035,-49.2744 0.019,-16.8341 0.033,-33.6696 0.042,-50.5037 0,-1.0694 0,-2.1401 0,-3.2423 0,-5.4561 0.01,-10.9123 0.01,-16.3684 0.02,-39.1612 0.05,-78.321 0.085,-117.4822 0.047,-52.9497 0.083,-105.8994 0.1154,-158.8505 0.085,-127.3555 0.1881,-254.7107 0.2891,-382.0673 0.2086,-284.3878 0.4173,-568.77706 0.6325,-861.78269 z m 269.2717,270.28389 c 0,390.8485 0,781.6985 0,1184.3912 515.7872,0 1031.5741,0 1562.9911,0 0,-390.849 0,-781.699 0,-1184.3912 -515.7871,0 -1031.5741,0 -1562.9911,0 z"
       fill="#d1c4b0"
       id="path5-3"
       style="stroke-width:1.0123" /><path
       d="m 1438.3588,2397.3429 h 2099.5098 c -1.8921,4.7295 -2.8007,6.1472 -6.3267,9.4277 -3.6416,3.4949 -6.664,7.0104 -9.4785,11.1936 -1.748,2.0541 -2.9176,2.7001 -5.4531,3.6739 -2.5799,0.1966 -5.0489,0.284 -7.6284,0.2759 l -2.338,0.015 c -2.5872,0.015 -5.1743,0.015 -7.7615,0.017 -1.8539,0 -3.7078,0.016 -5.5619,0.026 -3.9925,0.018 -7.9849,0.03 -11.9775,0.037 -6.3068,0.013 -12.6134,0.038 -18.9202,0.066 -9.969,0.043 -19.9379,0.075 -29.9069,0.1037 -17.8693,0.052 -35.7381,0.1148 -53.6071,0.1872 -6.2761,0.026 -12.5525,0.045 -18.8288,0.06 -3.8942,0.013 -7.7886,0.025 -11.6828,0.041 -1.8131,0 -3.6264,0.013 -5.4396,0.013 -2.4641,0 -4.9281,0.013 -7.3923,0.025 h -2.2028 c -3.3111,-0.2622 -3.3111,-0.2622 -6.0521,1.1596 -1.2482,9.9999 -1.1401,20.1118 -1.0884,30.1705 0.013,2.5785 0.019,5.1584 0.024,7.7369 0.011,5.4589 0.031,10.9191 0.052,16.378 0.024,6.367 0.044,12.7341 0.057,19.1026 0.01,2.5361 0.02,5.0736 0.032,7.6099 0,1.5501 0.01,3.1015 0.01,4.6517 l 0.016,2.125 c 0,3.2888 -0.1174,6.262 -1.1273,9.4073 h -2.0244 v 2.024 c -1.1369,1.206 -2.2856,2.4024 -3.4876,3.5428 -1.1245,1.0844 -2.2125,2.207 -3.2744,3.3542 l -1.7793,1.897 -1.6411,1.7837 c -5.4778,4.3758 -12.0309,3.8705 -18.6709,3.8172 h -3.2433 c -3.5859,0 -7.1713,-0.022 -10.7571,-0.039 -2.5707,0 -5.1417,-0.013 -7.712,-0.013 -5.535,-0.013 -11.0696,-0.026 -16.6043,-0.046 -8.0043,-0.03 -16.0088,-0.046 -24.0132,-0.058 -12.9903,-0.02 -25.9803,-0.046 -38.9706,-0.077 l -2.3548,-0.013 c -8.6769,-0.021 -17.3541,-0.045 -26.0311,-0.071 -3.1503,-0.013 -6.3007,-0.018 -9.4507,-0.028 h -2.3557 c -12.947,-0.037 -25.894,-0.063 -38.8408,-0.077 -7.9886,-0.013 -15.9767,-0.031 -23.9648,-0.066 -6.112,-0.025 -12.2239,-0.034 -18.3359,-0.038 -2.5131,0 -5.0263,-0.013 -7.5392,-0.028 -3.4171,-0.019 -6.8333,-0.021 -10.2503,-0.016 l -3.0489,-0.031 -2.7578,0.015 -2.3919,-0.013 -1.9196,0.3756 -2.0245,3.036 2.2776,2.2781 2.7839,2.7833 2.3409,2.2153 c 1.7081,1.8341 1.7081,1.8341 1.7081,3.8595 h 5.0616 l 0.3796,2.4666 0.6326,2.5949 2.0247,1.012 c 0,0 9.4468,10.4834 10.9455,12.3367 3.4549,4.1683 7.2221,7.9021 11.1353,11.6416 2.2144,2.3408 2.2144,2.3408 2.2144,4.3662 h 2.0246 c 1.645,1.3289 1.645,1.3289 3.0366,3.0361 v 3.0374 l 3.037,1.012 v 2.0254 h 2.0248 v 2.024 h 2.0246 c 1.3608,1.6785 2.709,3.3665 4.0492,5.0614 l 2.2775,1.6458 1.7717,1.3916 v 3.0361 l 1.7714,0.7593 c 2.6111,1.4505 4.3643,3.0716 6.327,5.3155 v 2.024 h 2.0247 v 2.0241 l 1.724,0.6965 c 2.9794,1.703 4.8562,3.8295 7.1335,6.3902 l 2.4517,2.7206 c 1.8505,2.3409 1.8505,2.3409 1.8505,4.3649 l 1.9615,0.8235 c 2.088,1.2019 2.088,1.2019 3.0999,4.238 l 3.037,1.0133 c 1.4474,1.4709 1.4474,1.4709 2.9104,3.2901 1.9118,2.3245 3.7838,4.4018 5.9475,6.5159 2.044,2.1019 3.2079,3.704 4.302,6.3903 h 2.0246 v 2.0241 h 2.0247 l 1.0122,3.0373 c 1.68,1.0244 3.3667,2.0377 5.0615,3.0375 v 2.0239 h 2.0246 c 2.2416,2.5922 4.1728,5.2472 6.0738,8.0989 l 3.0368,2.024 v 2.0254 c 2.049,2.4584 4.184,3.7599 7.0862,5.0614 l -2.0246,1.0121 1.5186,1.3917 c 1.5184,1.6456 1.5184,1.6456 1.5184,3.6697 l 3.0369,1.012 v 2.0254 c -27.0696,1.281 -54.146,1.1595 -81.2394,1.1486 -6.2155,0 -12.4316,0 -18.6473,0 -12.8458,0 -25.6908,0.013 -38.5363,0.013 -12.9975,0 -25.9951,0 -38.9923,0 h -2.4972 c -3.3574,0 -6.7142,0 -10.0714,0 -34.9211,0.013 -69.8422,0.013 -104.7635,0.013 h -11.2542 -2.8211 c -20.6638,0 -41.3274,0 -61.9912,0 h -25.552 -2.8521 c -53.883,0 -107.7663,0.013 -161.6495,0.013 h -6.0419 c -9.0929,0 -18.1854,0 -27.2779,0 h -12.1634 -6.0878 c -64.2482,0 -128.4964,0.013 -192.7447,0.021 -16.207,0 -32.4138,0.013 -48.6207,0.013 h -3.0245 c -30.7394,0 -61.4789,0.013 -92.2183,0.013 h -2.9229 c -21.1698,0 -42.3395,0 -63.5092,0 -7.5735,0 -15.147,0 -22.7206,0 -1.8841,0 -3.7682,0 -5.6523,0 -30.0437,0 -60.0875,0 -90.1314,0.015 -30.2307,0.013 -60.4612,0.013 -90.6918,0 -4.1715,0 -8.3432,0 -12.515,0 h -2.478 c -12.9764,0 -25.9529,0 -38.9294,0.013 -12.7422,0.013 -25.4846,0.013 -38.227,0 -6.8226,0 -13.6453,0 -20.468,0 -6.1951,0.013 -12.3904,0 -18.5855,0 -2.2381,0 -4.4759,0 -6.714,0 -3.0197,0.013 -6.0393,0 -9.059,0 l -2.6562,0.015 -2.4276,-0.015 h -2.0863 c -2.3245,-0.3004 -3.975,-1.1349 -6.006,-2.2766 l 1.4078,-1.3726 c 3.4872,-3.4362 6.7641,-6.8628 9.7277,-10.7757 h -2.0246 v -2.024 c 4.4384,-3.0374 4.4384,-3.0374 7.0861,-3.0374 1.8279,-1.4641 1.8279,-1.4641 3.6695,-3.3529 l 1.9376,-1.886 c 1.7953,-1.8479 1.7953,-1.8479 1.4789,-4.884 1.0122,-2.024 1.0122,-2.024 4.0492,-3.036 v -3.0374 l 2.4675,-1.4559 c 2.7701,-1.2892 2.7701,-1.2892 3.2267,-3.7326 l 0.3795,-1.8983 3.037,-1.0121 c 1.9846,-2.2766 3.7091,-4.3812 5.0614,-7.0854 l 3.037,-1.0133 2.0246,-3.0361 h 2.0246 l 0.6959,-1.7085 c 1.7049,-3.0033 3.9271,-4.97 6.3902,-7.4024 2.2773,-2.3845 4.5229,-4.7992 6.7698,-7.2125 l 1.8732,-2.0049 c 2.9077,-3.1193 5.7975,-6.2509 8.6333,-9.4344 l 1.4029,-1.5721 c 1.239,-1.393 2.4709,-2.7928 3.7021,-4.1941 1.914,-1.9011 1.914,-1.9011 3.9386,-1.9011 v -2.0254 h 2.0245 l 0.7591,-1.7714 c 1.4507,-2.6113 3.0717,-4.3649 5.3146,-6.3274 h 2.0248 l 0.1897,-1.7072 c 1.1714,-3.3351 3.3361,-4.9686 5.8839,-7.4023 0.9808,-1.1513 1.9506,-2.3122 2.9104,-3.4799 2.1435,-2.5608 4.3625,-4.6736 6.9596,-6.77 2.8785,-2.3709 4.3619,-4.2666 5.3146,-7.9718 l 8.0983,-7.0869 2.0246,-1.0119 c 0.6637,-2.558 0.6637,-2.558 1.0124,-5.0614 l 1.8032,-0.2651 c 2.8654,-0.9532 3.8911,-2.2821 5.7891,-4.6066 2.4221,-2.9063 4.9159,-5.6118 7.5922,-8.2887 v -1.0119 h -1.7089 c -33.4072,-0.082 -66.8143,-0.1735 -100.2214,-0.2787 -4.0092,-0.013 -8.0185,-0.026 -12.0276,-0.038 h -2.4187 c -12.9323,-0.041 -25.8645,-0.074 -38.7968,-0.1038 -13.2649,-0.031 -26.5297,-0.071 -39.7946,-0.1174 -8.1882,-0.028 -16.3765,-0.051 -24.5649,-0.066 -6.2738,-0.013 -12.5474,-0.034 -18.8207,-0.061 -2.5776,-0.013 -5.1551,-0.015 -7.7325,-0.018 -3.5096,0 -7.019,-0.019 -10.5284,-0.037 h -3.1154 l -2.8453,-0.023 -2.4554,-0.013 c -2.5055,-0.2923 -4.1319,-0.9506 -6.2657,-2.2835 l -0.9491,-1.9613 c -0.9571,-2.3135 -0.9571,-2.3135 -3.543,-3.5426 -3.0244,-1.8438 -3.8593,-3.6384 -5.6311,-6.643 l -4.0492,-2.0241 v -98.1951 l -40.919,0.7116 c -8.5808,0.1037 -17.1613,0.2021 -25.7424,0.2772 -13.606,0.1202 -27.2094,0.2595 -40.8133,0.5381 -9.9109,0.2035 -19.8196,0.3332 -29.7324,0.3783 -5.2424,0.026 -10.479,0.087 -15.7195,0.2349 -36.0833,0.9847 -36.0833,0.9847 -47.5277,-9.3239 -4.906,-5.2144 -9.3571,-10.0737 -11.1162,-17.1114 z"
       fill="#b8a992"
       id="path7-6"
       sodipodi:nodetypes="cccccccccscssccscccscscccccccccccccccssssssssccscccccccccccccccccccccccccccccccccccccccccccccccccccccccccccccsssssssssssssscsssssssssssssssscsccccccccccccccccccccccccccccccccccccccccccccccccssssssccsccccccccccccscccc"
       style="stroke-width:1.0123" /><path
       d="m 1438.3588,2397.3429 c 692.8383,0 1385.6766,0 2099.5098,0 -1.8921,4.7295 -2.8007,6.1472 -6.3267,9.4277 -3.6416,3.4949 -6.664,7.0104 -9.4785,11.1936 -1.748,2.0541 -2.9176,2.7001 -5.4531,3.6739 -2.5799,0.1966 -5.0489,0.284 -7.6284,0.2759 -1.1572,0.013 -1.1572,0.013 -2.338,0.015 -2.5872,0.015 -5.1743,0.015 -7.7615,0.017 -1.8539,0 -3.7078,0.016 -5.5619,0.026 -3.9925,0.018 -7.9849,0.03 -11.9775,0.037 -6.3068,0.013 -12.6134,0.038 -18.9202,0.066 -9.969,0.043 -19.9379,0.075 -29.9069,0.1037 -17.8693,0.052 -35.7381,0.1148 -53.6071,0.1872 -6.2761,0.026 -12.5525,0.045 -18.8288,0.06 -3.8942,0.013 -7.7886,0.025 -11.6828,0.041 -1.8131,0 -3.6264,0.013 -5.4396,0.013 -2.4641,0 -4.9281,0.013 -7.3923,0.025 -1.0904,0 -1.0904,0 -2.2028,0 -3.3111,-0.2622 -3.3111,-0.2622 -6.0521,1.1596 -1.2673,9.9999 -1.0982,20.0831 -0.9647,30.1391 0.044,3.4663 0.067,6.9311 0.091,10.3973 0.046,6.4191 0.1004,12.838 0.1877,19.257 0.06,4.5001 0.095,8.9988 0.1144,13.4976 0.012,1.7058 0.034,3.4116 0.064,5.116 0.042,2.3764 0.052,4.75 0.054,7.1278 0.021,0.6965 0.039,1.3944 0.06,2.1142 -0.034,3.8965 -0.5149,5.3605 -3.0775,8.3734 -1.2884,1.0748 -1.2884,1.0748 -2.6025,2.1715 -0.8458,0.9083 -0.8458,0.9083 -1.7084,1.8342 -1.3288,1.2018 -1.3288,1.2018 -3.3537,1.2018 -0.3131,0.8154 -0.3131,0.8154 -0.6326,1.6458 -1.9583,3.3829 -4.3271,6.1294 -7.4657,8.4785 -2.9104,0.3783 -2.9104,0.3783 -5.0616,0 2.8426,-3.0006 5.2469,-5.5121 9.1108,-7.0868 0,-0.6679 0,-1.3357 0,-2.0241 0.6681,0 1.3362,0 2.0245,0 -0.3339,-2.3395 -0.6681,-4.6777 -1.0121,-7.0868 -271.9242,0 -543.8481,0 -824.0123,0 0.6682,-0.3333 1.3364,-0.6679 2.0246,-1.0121 0,-0.6678 0,-1.3356 0,-2.0254 -1.002,-0.3332 -2.0042,-0.6678 -3.0367,-1.012 -0.3342,1.3371 -0.6682,2.6728 -1.0125,4.0495 -1.3362,0 -2.6725,0 -4.0491,0 0,-2.6728 0,-5.3442 0,-8.0989 -0.6681,1.6703 -1.3363,3.342 -2.0247,5.0614 -0.5493,-0.1639 -1.0989,-0.3277 -1.6649,-0.4971 -2.7749,-0.5982 -5.2982,-0.6405 -8.1382,-0.6405 -1.1829,0 -2.3661,0 -3.5849,0 -1.3032,0 -2.6065,0 -3.9491,0.013 -1.4015,0 -2.8029,0 -4.2043,0 -3.8722,0 -7.7442,0 -11.6163,0 -4.2046,0 -8.4088,0 -12.6133,0 -7.3759,0 -14.7516,0 -22.1274,0 -10.9677,0 -21.9351,0 -32.9028,0 -18.4475,0 -36.8949,0 -55.3424,0.013 -18.2713,0 -36.5429,0.013 -54.8143,0.013 -1.1351,0 -2.2701,0 -3.4394,0 -5.7645,0 -11.5286,0 -17.2926,0 -40.8527,0 -81.7054,0.013 -122.5582,0.019 -39.6936,0.013 -79.387,0.016 -119.0806,0.02 -1.223,0 -2.4459,0 -3.7061,0 -12.2819,0 -24.5637,0 -36.8456,0 -25.0205,0 -50.0414,0 -75.062,0.013 -1.7257,0 -1.7257,0 -3.4862,0 -76.8571,0.013 -153.7141,0.026 -230.5712,0.043 0,-1.0025 0,-2.0036 0,-3.0375 -3.0065,-1.001 -3.0065,-1.001 -6.0738,-2.024 0,-29.3976 0,-58.7937 0,-89.0831 -13.734,0.224 -27.4684,0.4466 -41.6188,0.6774 -8.724,0.098 -17.4475,0.1913 -26.1715,0.2623 -13.8348,0.1146 -27.6674,0.2471 -41.5001,0.5121 -10.0773,0.1926 -20.1528,0.3155 -30.2318,0.3592 -5.331,0.025 -10.6566,0.082 -15.9859,0.224 -36.7243,0.9341 -36.7243,0.9341 -47.6589,-8.8486 -4.7304,-5.0519 -8.7313,-9.6817 -10.4281,-16.4681 z"
       fill="#a59680"
       id="path11-9"
       style="stroke-width:1.0123" /><path
       d="m 1792.6636,2691.922 c 458.997,0 917.994,0 1390.9,0 0,32.4035 0,64.8084 0,98.1939 -4.0555,2.7028 -7.6043,2.3013 -12.313,2.2753 -1.4516,0 -1.4516,0 -2.9324,0.013 -3.28,0 -6.5598,0 -9.8399,-0.013 -2.3704,0 -4.7408,0 -7.1113,0.013 -5.1897,0 -10.3789,0 -15.5683,0 -7.7689,-0.013 -15.5376,-0.013 -23.3065,0 -13.238,0.013 -26.476,0 -39.7139,0 -13.4218,-0.013 -26.8436,-0.013 -40.2657,-0.013 -0.8465,0 -1.6931,0 -2.5654,0 -4.3164,0 -8.6332,0 -12.9497,0 -31.2728,0 -62.5458,0 -93.8185,-0.016 -30.9782,-0.013 -61.9564,-0.021 -92.9344,-0.022 -0.9615,0 -1.923,0 -2.9134,0 -8.7809,0 -17.5618,0 -26.3425,0 -21.83,0 -43.66,0 -65.4898,0 -0.9943,0 -1.9884,0 -3.0127,0 -48.3827,0 -96.7652,-0.018 -145.1478,-0.031 -16.7935,0 -33.587,-0.013 -50.3807,-0.013 -1.0416,0 -2.0831,0 -3.156,0 -48.4013,-0.013 -96.8024,-0.02 -145.2036,-0.026 -3.1414,0 -6.2831,0 -9.4244,0 -20.8187,0 -41.6377,0 -62.4564,-0.013 -41.4256,0 -82.8511,-0.013 -124.2768,-0.017 -1.9728,0 -3.9457,0 -5.9187,0 -88.8349,-0.013 -177.6698,-0.031 -266.5048,-0.053 -0.832,0 -1.664,0 -2.5211,0 -41.6108,-0.013 -83.2214,-0.02 -124.8323,-0.031 0,-33.0714 0,-66.1442 0,-100.218 z"
       fill="#d2c7b3"
       id="path15-0"
       style="stroke-width:1.0123" /><path
       d="m 1711.0856,2128.8086 c 1.383,-0.015 1.383,-0.015 2.7938,-0.03 1.0172,0 2.0341,0 3.082,0 1.0832,-0.013 2.1664,-0.016 3.2826,-0.026 3.6739,-0.026 7.3479,-0.038 11.0219,-0.051 2.6545,-0.016 5.3089,-0.034 7.9632,-0.052 6.5811,-0.043 13.1624,-0.074 19.7435,-0.1024 7.9336,-0.034 15.8672,-0.081 23.8007,-0.127 15.7524,-0.09 31.5049,-0.1694 47.2574,-0.2432 14.1156,-0.066 28.2311,-0.1351 42.3466,-0.2089 93.166,-0.4848 186.3325,-0.8508 279.4993,-1.1295 1.0974,0 2.1948,0 3.3257,-0.013 50.0089,-0.1489 100.0178,-0.2841 150.0268,-0.4029 21.0678,-0.049 42.1353,-0.1011 63.2031,-0.153 3.5286,-0.013 7.0573,-0.018 10.5858,-0.028 74.2768,-0.1845 148.5522,-0.5259 222.8279,-0.9575 54.2003,-0.3154 108.4002,-0.6049 162.6013,-0.7238 1.6743,0 1.6743,0 3.3823,0 24.5118,-0.054 49.0234,-0.094 73.5352,-0.1229 9.8648,-0.013 19.7297,-0.025 29.5945,-0.038 1.6192,0 1.6192,0 3.2715,0 34.6997,-0.049 69.3965,-0.25 104.0951,-0.5327 34.9946,-0.2841 69.986,-0.4138 104.9818,-0.336 4.8521,0.013 9.7044,0.021 14.5567,0.029 1.4264,0 1.4264,0 2.8819,0 14.9713,0.022 29.9362,-0.1188 44.9057,-0.3305 14.7759,-0.2048 29.5434,-0.2321 44.32,-0.079 7.8875,0.077 15.756,0.082 23.6412,-0.142 28.3299,-0.7716 52.5117,0.1625 74.1258,20.3208 10.359,9.9316 19.6355,20.8426 28.5695,32.054 2.1733,2.6371 4.4982,4.9848 6.9527,7.3558 0,0.3346 0,0.6692 0,1.0134 -550.8632,0 -1101.7264,0 -1669.2825,0 1.3499,-5.4001 4.2048,-7.6742 8.5412,-11.0093 2.7547,-2.2849 4.8908,-4.7445 7.1772,-7.4815 2.7473,-3.2354 5.6561,-6.128 9.0196,-8.7147 2.7548,-2.2849 4.8907,-4.7446 7.1771,-7.4816 2.7473,-3.2354 5.6562,-6.1281 9.0199,-8.7161 2.7923,-2.3149 4.948,-4.8184 7.2204,-7.6317 2.8031,-3.1085 4.9238,-3.8828 8.9516,-3.9047 z"
       fill="#ede3ce"
       id="path20"
       style="stroke-width:1.0123" /><path
       d="m 1652.9663,889.0162 c 550.8632,0 1101.7263,0 1669.2824,0 -1.9359,3.87185 -3.579,5.85898 -6.5898,8.87587 -0.4611,0.4644 -0.9222,0.93013 -1.3972,1.40814 -1.519,1.52824 -3.045,3.0483 -4.5717,4.56836 -1.0591,1.05984 -2.1182,2.12101 -3.177,3.18219 -2.216,2.21932 -4.4356,4.43455 -6.658,6.64702 -2.8528,2.84208 -5.6963,5.69243 -8.5373,8.54545 -2.183,2.18926 -4.3708,4.37584 -6.56,6.55967 -1.0509,1.04889 -2.1004,2.10046 -3.1484,3.15212 -1.461,1.46676 -2.9294,2.92544 -4.3981,4.38535 -0.8346,0.83174 -1.6692,1.66623 -2.5289,2.52394 -2.0362,1.77815 -2.0362,1.77815 -4.0609,1.77815 -0.3339,1.00245 -0.6681,2.00491 -1.0122,3.03744 -47.8045,0.0213 -95.6089,0.0436 -143.4134,0.0641 -0.9355,0 -1.871,0 -2.8346,0 -100.2043,0.0436 -200.4086,0.0809 -300.6127,0.10658 -2.2254,0 -4.4502,0 -6.6755,0 -46.7025,0.0133 -93.4051,0.0231 -140.1075,0.0329 -23.4593,0 -46.9185,0.0133 -70.3778,0.016 -3.5389,0 -7.0777,0 -10.6164,0 -54.5106,0.0133 -109.0212,0.0285 -163.532,0.0543 -1.7588,0 -1.7588,0 -3.5531,0 -18.906,0.0133 -37.8118,0.0178 -56.7178,0.0276 -54.4362,0.0276 -108.8728,0.0516 -163.3091,0.0632 -1.6781,0 -1.6781,0 -3.3902,0 -24.5563,0 -49.1129,0.0133 -73.6693,0.0133 -9.8798,0 -19.7595,0 -29.6393,0 -1.0813,0 -2.1626,0 -3.2767,0 -34.8748,0 -69.7495,0.0222 -104.6243,0.0463 -35.1134,0.0231 -70.227,0.0356 -105.3404,0.0302 -4.8462,0 -9.6924,0 -14.5384,0 -0.9499,0 -1.9001,0 -2.8789,0 -15.0772,0 -30.1545,0.0133 -45.2317,0.0285 -14.8053,0.016 -29.6106,0.0187 -44.4159,0.0134 -8.6934,-0.0134 -17.3862,0 -26.0795,0.0178 -5.7619,0.0133 -11.5235,0.0133 -17.2854,0 -3.2738,-0.0133 -6.547,-0.0133 -9.821,0.0133 -3.5086,0.0151 -7.0166,0 -10.5252,-0.0133 -1.5305,0.0151 -1.5305,0.0151 -3.0917,0.0303 -6.7879,-0.0685 -6.7879,-0.0685 -10.1156,-2.46246 -1.3668,-2.1196 -1.3668,-2.1196 -1.3668,-4.14498 -0.6681,0 -1.3364,0 -2.0246,0 0,-0.66786 0,-1.33572 0,-2.02404 -0.6264,-0.2499 -1.2526,-0.50123 -1.8982,-0.75932 -2.506,-1.4737 -3.114,-2.6605 -4.1754,-5.31415 -0.6682,0 -1.3365,0 -2.0249,0 0,-0.66786 0,-1.33705 0,-2.02538 -0.6262,-0.2499 -1.2527,-0.49989 -1.898,-0.75931 -2.5061,-1.47362 -3.114,-2.6605 -4.1757,-5.31415 -0.6681,0 -1.3363,0 -2.0246,0 0,-0.66778 0,-1.33564 0,-2.02396 -0.6263,-0.25133 -1.2528,-0.50123 -1.8982,-0.7594 -2.5059,-1.47496 -3.1139,-2.66042 -4.1756,-5.3154 -0.6681,0 -1.3362,0 -2.0246,0 0,-0.66786 0,-1.33572 0,-2.02404 -0.6265,-0.25 -1.2527,-0.50123 -1.898,-0.75941 -2.5063,-1.47362 -3.1143,-2.66041 -4.1757,-5.31406 -0.6682,0 -1.3363,0 -2.0246,0 0,-0.6692 0,-1.33706 0,-2.02538 -0.6265,-0.2499 -1.2528,-0.50123 -1.8983,-0.75932 -2.5061,-1.4737 -3.114,-2.6605 -4.1757,-5.31415 -0.6681,0 -1.3363,0 -2.0246,0 0,-0.66786 0,-1.33563 0,-2.02404 -0.6054,-0.29225 -1.2108,-0.5845 -1.8347,-0.88636 -2.2144,-1.13902 -2.2144,-1.13902 -5.2513,-3.16307 0,-0.66777 0,-1.33705 0,-2.02537 z"
       fill="#9f9282"
       id="path21-4"
       style="stroke-width:1.0123" /><path
       d="m 3434.614,2265.7444 c 4.6045,0.4507 8.915,1.1608 13.1598,3.036 1.2654,2.0882 1.2654,2.0882 2.0248,4.0495 0.6679,0.3346 1.336,0.6678 2.0245,1.0119 0,0.6692 0,1.3371 0,2.0254 1.0022,-0.3346 2.0044,-0.6678 3.0368,-1.012 1.5555,9.4086 2.3242,17.812 1.0124,27.3312 -0.6681,0 -1.3363,0 -2.0246,0 0,1.6703 0,3.3406 0,5.0615 -0.8978,0.3769 -1.7957,0.7524 -2.7205,1.139 -3.5402,1.7208 -3.5402,1.7208 -5.8209,5.0614 -2.5911,2.9076 -3.5973,3.6711 -7.4181,3.9074 -0.7464,0 -1.4929,0.013 -2.2618,0.015 -1.6207,0.04 -1.6207,0.04 -3.2743,0.079 -9.2772,0.1243 -9.2772,0.1243 -12.9227,-1.0912 0,-0.6679 0,-1.3357 0,-2.0241 -0.6054,-0.1051 -1.2109,-0.2089 -1.8347,-0.3168 -2.531,-0.7949 -3.6068,-1.6771 -5.2514,-3.7326 0,-0.6679 0,-1.3356 0,-2.0254 -0.668,0 -1.3361,0 -2.0246,0 0,-1.001 0,-2.0035 0,-3.036 -0.6681,0 -1.3363,0 -2.0244,0 -0.86,-5.2676 -1.1869,-10.4807 -1.3289,-15.818 -0.038,-1.2646 -0.076,-2.5307 -0.1146,-3.835 0.5075,-4.2748 1.8825,-6.3247 4.4803,-9.7036 0.6682,-1.0653 1.3363,-2.1305 2.0246,-3.2272 3.7155,-4.4236 9.7363,-5.0573 15.1846,-5.8836 1.6871,0 3.3741,0 5.0614,0 0.334,-0.3346 0.6681,-0.6679 1.0123,-1.012 z"
       fill="#ded6c4"
       id="path141"
       style="stroke-width:1.0123" /><path
       d="m 2482.04,2420.626 c 2.0043,0 4.0086,0 6.0736,0 0,29.7308 0,59.4629 0,90.0951 -2.5052,0.4999 -2.5052,0.4999 -5.0614,1.012 -1.1388,-30.3686 -1.1255,-60.7207 -1.0122,-91.1071 z"
       fill="#776956"
       id="path207"
       style="stroke-width:1.0123" /><path
       d="m 3364.7655,2280.9287 c 0,0.6679 0,1.3356 0,2.024 0.6472,0.3141 1.2944,0.6269 1.9612,0.9492 2.0878,1.0762 2.0878,1.0762 3.1003,2.0882 0.6128,4.8074 0.9819,8.7926 -1.9613,12.7806 -4.2062,1.8874 -7.6859,2.4447 -12.2109,1.3917 -3.8743,-3.0224 -3.8743,-3.0224 -5.0615,-6.0734 -0.4201,-4.421 0.2917,-7.8804 2.5306,-11.7058 3.7901,-2.1783 7.37,-1.7837 11.6416,-1.4545 z"
       fill="#05883e"
       id="path246"
       style="stroke-width:1.0123" /><rect
       style="display:inline;fill:#999999;fill-opacity:1;stroke:#000000;stroke-width:184.847;stroke-opacity:0"
       id="rect32"
       width="210.68016"
       height="26.132715"
       x="2383.8853"
       y="2285.7312"
       inkscape:label="Skillset Rectangle" /><text
       xml:space="preserve"
       transform="matrix(221.56439,0,0,221.56439,-41805466,-8955679)"
       id="text31"
       style="font-style:normal;font-variant:normal;font-weight:normal;font-stretch:normal;font-size:0.186667px;font-family:Serif;-inkscape-font-specification:Serif;text-align:center;writing-mode:lr-tb;direction:ltr;white-space:pre;shape-inside:url(#rect31);display:inline;fill:#ececec;fill-opacity:1;stroke:#000000;stroke-opacity:0"
       x="0.53181428"
       y="0"
       inkscape:label="Skillset Text"><tspan
         x="188693.89"
         y="40430.65"
         id="tspan2"><tspan
           style="font-weight:bold;font-family:'DejaVu Sans';-inkscape-font-specification:'DejaVu Sans Bold'"
           id="tspan1">SKILLSET</tspan></tspan></text></g></svg>
