<?xml version="1.0" encoding="UTF-8" standalone="no"?>
<!-- Created with Inkscape (http://www.inkscape.org/) -->

<svg
   width="1982.041mm"
   height="2071.7832mm"
   viewBox="0 0 1982.041 2071.7832"
   version="1.1"
   id="svg1"
   inkscape:version="1.4.1 (93de688d07, 2025-03-30)"
   sodipodi:docname="ZHAW-Logo.svg"
   xmlns:inkscape="http://www.inkscape.org/namespaces/inkscape"
   xmlns:sodipodi="http://sodipodi.sourceforge.net/DTD/sodipodi-0.dtd"
   xmlns="http://www.w3.org/2000/svg"
   xmlns:svg="http://www.w3.org/2000/svg">
  <sodipodi:namedview
     id="namedview1"
     pagecolor="#ffffff"
     bordercolor="#000000"
     borderopacity="0.25"
     inkscape:showpageshadow="false"
     inkscape:pageopacity="0.0"
     inkscape:pagecheckerboard="true"
     inkscape:deskcolor="#d1d1d1"
     inkscape:document-units="mm"
     showborder="false"
     borderlayer="false"
     inkscape:zoom="0.026890828"
     inkscape:cx="6768.107"
     inkscape:cy="2900.6173"
     inkscape:window-width="1920"
     inkscape:window-height="1131"
     inkscape:window-x="0"
     inkscape:window-y="0"
     inkscape:window-maximized="1"
     inkscape:current-layer="svg1" />
  <defs
     id="defs1" />
  <g
     id="ZHAW_Logo.svg"
     transform="matrix(3.7282271,0,0,3.7282271,-237.43102,-395.74645)"
     style="display:inline;fill:#ffffff">
    <g
       id="path12192"
       transform="translate(44.7997,-87.5123)"
       style="clip-rule:evenodd;fill:#ffffff;fill-rule:evenodd;stroke-linejoin:round;stroke-miterlimit:2">
                <path
   d="m 157.281,283.684 c -3.173,0 -6.271,0.43 -9.217,1.285 -11.31,3.69 -18.9,14.14 -18.918,26.019 0,11.903 7.585,22.364 18.871,26.054 2.982,0.872 6.085,1.302 9.264,1.302 h 75.333 c -2.877,3.133 -104.34,113.459 -104.34,113.459 -5.852,6.288 -8.81,14.471 -8.81,24.322 l 0.058,1.302 c 0.587,11.949 9.81,25.159 28.67,25.985 l 1.848,0.041 h 150.171 c 3.226,0 6.37,-0.447 9.363,-1.33 11.24,-3.732 18.778,-14.175 18.778,-25.997 0,-11.85 -7.549,-22.3 -18.789,-26.002 l -0.059,-0.009 c -2.975,-0.884 -6.108,-1.319 -9.316,-1.319 h -87.084 c 2.853,-3.128 102.392,-112.257 102.392,-112.257 6.614,-7.084 10.415,-15.36 10.415,-22.695 l -0.098,-2.848 c -0.314,-4.969 -1.465,-9.427 -3.429,-13.251 -3.104,-6.061 -8.201,-10.391 -14.739,-12.518 -3.15,-1.023 -6.602,-1.54 -10.287,-1.54 H 157.281 m 8.677,380.296 c 0,21.8 -19.783,42.792 -52.079,42.792 -20.185,0 -32.698,-10.903 -32.698,-24.229 0,-17.761 13.315,-25.433 37.946,-29.054 l 21.393,-3.237 c 6.864,-1.214 18.976,-3.237 25.438,-9.293 z m 66.255,47.732 c -1.755,-6.05 -3.963,-13.582 -3.963,-28.361 v -98.906 c 0,-41.217 -35.168,-63.912 -99.034,-63.912 -59.92,0 -96.854,28.402 -96.854,55.648 0,15.116 12.251,27.373 27.374,27.373 6.561,0 12.582,-2.313 17.296,-6.16 3.005,-2.232 5.771,-4.894 8.584,-7.637 9.095,-8.857 19.411,-18.894 43.193,-18.894 16.337,0 33.79,5.48 33.79,20.858 0,13.432 -7.573,16.756 -22.457,18.447 l -35.917,4.045 c -42.211,4.888 -85.34,17.192 -85.34,71.154 0,39.759 35.574,63.518 69.968,63.518 32.308,0 57.322,-9.776 78.198,-30.361 3.272,19.603 16.221,30.361 37.254,30.361 16.825,0 30.012,-11.409 30.012,-25.973 0,-4.011 -0.976,-7.341 -2.104,-11.2 m 109.861,-484.264 -0.005,242.214 c 0.005,18.638 15.163,33.79 33.796,33.79 18.383,0 33.534,-14.948 33.784,-33.325 v -97.749 c 0,-26.008 21.016,-42.101 40.48,-42.101 28.559,0 32.819,22.84 32.819,36.452 v 103.496 c 0.296,18.313 15.436,33.221 33.755,33.227 18.65,0 33.813,-15.163 33.813,-33.79 V 355.021 c 0,-51.243 -29.379,-81.831 -78.599,-81.831 -24.909,0 -46.349,8.66 -62.285,24.933 v -71.27 c -0.331,-18.302 -15.483,-33.192 -33.779,-33.192 -18.632,0 -33.789,15.158 -33.789,33.79 M 487.65,541.888 c 0,0.009 -1.087,3.952 -1.087,3.952 l -1.372,5.917 c 0,0 -22.143,98.452 -25.642,113.981 -0.877,-4.074 -22.137,-102.282 -22.137,-102.282 -0.935,-4.191 -2.22,-9.63 -3.836,-14.687 l -1.458,-4.202 c -6.178,-14.889 -20.562,-24.502 -36.673,-24.502 -15.407,0 -29.541,9.037 -36.022,23.038 -1.115,2.917 -2.127,6.166 -3.08,9.99 -0.901,3.551 -1.668,7.178 -2.342,10.38 0,0 -18.784,88.16 -21.876,102.672 -0.947,-3.964 -27.542,-114.481 -27.542,-114.481 l -1.145,-4.702 c -0.732,-2.894 -1.406,-5.19 -2.121,-7.236 -5.091,-11.914 -16.726,-19.626 -29.646,-19.667 -9.357,0.037 -18.313,4.115 -24.573,11.188 -4.573,5.283 -7.264,11.745 -7.782,18.696 0,0.014 -0.058,1.413 -0.058,1.413 0,1.912 0.082,3.789 0.273,5.713 0.645,6.712 2.319,12.053 3.935,17.214 l 43.182,140.483 0.935,2.976 2.197,6.445 c 6.637,15.216 21.626,25.09 38.201,25.171 l 0.314,0.005 c 17.25,-0.046 32.5,-10.45 38.841,-26.502 0,-0.032 1.993,-7.055 1.993,-7.055 0,-0.042 0.343,-1.337 0.343,-1.337 0,0 24.537,-97.772 25.415,-101.294 0.895,3.586 25.746,102.602 25.746,102.602 l 1.831,6.538 c 6.126,16.139 21.812,26.996 39.038,27.048 l 0.349,-0.005 c 16.22,-0.087 31.075,-9.676 37.852,-24.432 0.883,-2.348 1.755,-4.894 2.673,-7.823 l 0.739,-2.354 43.193,-140.466 c 1.616,-5.19 3.289,-10.548 3.929,-17.214 0.18,-1.924 0.273,-3.801 0.273,-5.713 l -0.058,-1.413 c -0.517,-6.968 -3.22,-13.431 -7.788,-18.714 -6.282,-7.067 -15.227,-11.135 -24.561,-11.17 -13.762,0.042 -26.007,8.822 -30.488,21.829"
   style="fill:#ffffff;fill-rule:nonzero"
   id="path1-35" />

            </g>
  </g>
</svg>
